<?xml version="1.0" encoding="utf-8" ?><svg xmlns="http://www.w3.org/2000/svg" xmlns:xlink="http://www.w3.org/1999/xlink" width="2148" height="508" viewBox="0 0 2148 508"><defs><linearGradient id="gradient_0" gradientUnits="userSpaceOnUse" x1="201.21715" y1="24.423828" x2="216.44875" y2="193.71115"><stop offset="0" stop-color="#305AE3"/><stop offset="1" stop-color="#73ABFF"/></linearGradient></defs><path fill="url(#gradient_0)" transform="scale(2.38643 2.38643)" d="M162.467 28.9969C162.3 22.2908 160.499 10.159 165.328 5.11428C166.766 3.61178 168.653 2.91502 170.713 2.87446C172.958 2.83023 174.764 3.28208 176.4 4.88691C179.656 8.08162 179.705 12.6264 179.71 16.8789C179.679 20.9243 179.674 24.9698 179.695 29.0153C191.781 28.8706 203.868 28.8141 215.955 28.846C223.689 28.8143 231.51 28.5235 239.235 28.8681C238.993 21.9941 237.341 10.2327 242.434 4.84804C243.668 3.54414 245.19 2.85611 246.989 2.82192C249.392 2.77624 251.724 3.77584 253.438 5.43459C256.414 8.31429 256.427 12.862 256.459 16.7323C256.492 20.8069 256.294 24.8956 256.462 28.9665C267.306 28.765 284.036 26.3905 292.406 34.4345C297.941 39.7537 298.229 46.4207 298.323 53.5723C298.683 80.8815 298.377 108.238 298.352 135.553L298.352 158.53C298.366 163.817 298.732 169.517 297.883 174.748C297.35 178.035 295.467 181.035 293.166 183.383C288.483 188.162 281.265 189.22 274.872 189.267L183.622 189.212L155.445 189.255C149.352 189.268 142.971 189.629 136.929 188.776C132.491 188.15 128.747 186.93 125.489 183.682C122.662 180.849 120.778 177.214 120.093 173.271C118.587 164.576 119.514 147.644 119.515 138.025L119.545 64.1308C119.546 54.7146 117.577 42.0906 124.861 34.9035C132.742 27.1269 152.038 28.9049 162.467 28.9969ZM222.13 128.846C219.134 133.556 215.392 137.743 211.414 141.648C218.148 149.542 226.964 155.327 237.534 156.16C238.767 156.254 240.002 156.322 241.238 156.366C251.677 156.315 261.347 153.384 268.843 145.813C275.772 138.814 279.213 129.998 279.148 120.179C279.078 109.777 275.635 99.2708 268.12 91.8654C260.915 84.7662 251.563 81.3324 241.522 81.4155C231.777 81.4963 224.249 84.7745 217.434 91.7091C209.22 100.067 203.551 111.112 197.848 121.277C195.109 126.162 192.613 131.619 188.517 135.544C185.213 138.71 181.201 140.48 176.604 140.547C170.864 140.659 165.317 138.474 161.198 134.477C157.02 130.348 155.059 124.953 155.064 119.149C155.069 113.306 157.136 107.899 161.322 103.768C165.681 99.4669 171.453 97.2804 177.532 97.3583C184.407 97.4464 189.375 100.186 194.064 105.044C194.191 105.175 194.315 105.307 194.438 105.442C197.865 101.363 201.645 97.5948 205.736 94.1806C199.085 86.581 190.716 82.0926 180.526 81.4278C178.493 81.2951 176.315 81.1887 174.286 81.409C163.824 82.2062 154.879 85.6859 147.9 93.7848C140.757 102.072 138.361 112.68 139.196 123.427C139.934 132.93 143.854 141.741 151.193 147.983C158.732 154.394 168.697 157.051 178.474 156.254C187.442 155.524 195.752 151.73 201.613 144.798C206.305 139.249 209.444 132.173 212.952 125.842C215.635 120.998 218.629 116.318 221.625 111.663C224.088 107.834 226.528 103.901 230.134 101.023C232.758 98.8906 235.97 97.6086 239.342 97.3479C245.047 96.8786 250.909 98.6294 255.265 102.368C259.838 106.292 262.358 112.183 262.799 118.133C263.211 123.688 261.655 129.085 257.981 133.34C254.231 137.609 248.932 140.206 243.258 140.557C237.367 140.959 231.751 138.915 227.34 135.042C225.366 133.309 223.566 131.045 222.13 128.846Z"/><path fill="#0E47DE" transform="scale(2.38643 2.38643)" d="M162.467 28.9969C162.3 22.2908 160.499 10.159 165.328 5.11428C166.766 3.61178 168.653 2.91502 170.713 2.87446C172.958 2.83023 174.764 3.28208 176.4 4.88691C179.656 8.08162 179.705 12.6264 179.71 16.8789C179.679 20.9243 179.674 24.9698 179.695 29.0153C179.594 34.6105 179.791 40.2107 179.813 45.806C179.826 49.107 179.832 52.9349 177.322 55.4168C175.576 57.1442 172.375 58.6577 169.888 58.6233C168.267 58.6008 166.942 57.9393 165.838 56.7735C160.19 50.8139 162.291 36.765 162.467 28.9969Z"/><path fill="#0E47DE" transform="scale(2.38643 2.38643)" d="M239.235 28.8681C238.993 21.9941 237.341 10.2327 242.434 4.84804C243.668 3.54414 245.19 2.85611 246.989 2.82192C249.392 2.77624 251.724 3.77584 253.438 5.43459C256.414 8.31429 256.427 12.862 256.459 16.7323C256.492 20.8069 256.294 24.8956 256.462 28.9665C256.468 29.0405 256.474 29.1146 256.477 29.1888C256.742 35.8276 258.295 51.0515 253.678 55.9867C252.268 57.4945 250.412 58.2673 248.357 58.3258C246.151 58.3885 244.093 57.895 242.462 56.3536C237.218 51.3963 239.435 35.9691 239.235 28.8681Z"/><path transform="scale(2.38643 2.38643)" d="M14.5211 25.6633C17.3762 25.1868 23.1223 24.8252 25.6149 26.2738C28.383 30.2303 27.144 75.4946 26.8855 83.074C33.9729 75.992 42.9571 71.1946 52.9622 70.0484C64.6022 68.7149 76.3542 71.2523 85.6123 78.6406C95.8907 86.8431 101.956 99.0433 103.388 112.021C104.979 126.439 101.496 140.414 92.3747 151.769C91.0222 153.199 89.6669 154.653 88.2135 155.981C78.0204 165.298 65.1338 168.104 51.6726 167.475C38.4861 166.775 26.1053 160.916 17.2073 151.165C11.8031 145.316 8.04288 138.142 6.30777 130.372C3.32859 116.808 5.15984 100.439 5.10726 86.5109C5.03206 66.5926 4.21142 46.4011 5.16839 26.5144C8.15947 25.8313 11.4566 25.8486 14.5211 25.6633ZM57.6236 146.723C64.8288 145.884 71.1044 143.567 75.7505 137.683C80.6839 131.434 82.0359 122.395 81.1164 114.67C80.2484 107.38 76.8655 100.33 71.0139 95.7436C65.364 91.3154 59.1602 90.5053 52.1913 90.6294C44.4281 91.6326 37.806 94.7241 32.9257 101.019C28.1938 107.122 26.6551 115.181 27.6234 122.743C28.5601 130.057 32.098 136.994 37.9894 141.541C44.0257 146.2 50.2348 146.763 57.6236 146.723Z"/><path transform="scale(2.38643 2.38643)" d="M579.228 25.976C583.058 25.7193 595.733 24.8599 598.592 26.9977C598.818 27.6622 598.951 28.318 599.009 29.0167C599.949 40.3457 599.049 54.0803 599.114 65.7348L599.376 104.679C599.41 113.221 600.059 122.499 598.4 130.901C597.05 137.734 593.706 144.085 589.193 149.357C579.804 160.322 565.908 166.108 551.711 167.195C538.886 168.178 528.183 165.119 518.414 156.77C517.739 156.16 517.082 155.53 516.444 154.882C506.258 144.525 501.278 132.489 501.398 117.987C501.51 104.39 506.085 91.4366 515.898 81.8055C524.148 73.6058 535.371 69.0958 547.005 69.3044C559.228 69.4349 569.306 73.9952 577.81 82.6806C577.79 82.5279 577.772 82.375 577.756 82.2219C576.948 74.622 577.748 66.3732 577.744 58.6871C577.738 49.0257 576.782 38.5332 577.892 28.9563C578.055 27.5503 578.36 27.051 579.228 25.976ZM552.616 146.61C567.939 145.262 579.274 131.766 577.947 116.45C576.619 101.135 563.131 89.7884 547.804 91.0934C532.447 92.4011 521.065 105.914 522.395 121.26C523.725 136.605 537.263 147.961 552.616 146.61Z"/><path transform="scale(2.38643 2.38643)" d="M832.683 158.156C823.386 165.71 815.679 167.821 803.69 167.342C792.702 166.904 783.424 162.153 776.006 154.121C767.289 144.684 762.135 131.426 762.659 118.565C763.225 104.686 768 91.261 778.377 81.7077C788.744 72.1638 800.282 69.2809 814.039 69.8444C827.437 72.3229 839.187 78.3466 847.06 89.7757C850.11 94.2044 852.166 99.0256 853.455 104.233L853.932 106.805C854.962 113.885 854.776 121.006 854.727 128.141C854.707 132.733 855.628 162.377 853.83 164.267C852.29 165.887 847.615 165.785 845.488 165.834C842.85 165.895 835.693 166.49 833.862 164.667C832.276 163.089 832.665 160.233 832.683 158.156ZM811.677 146.553C818.324 145.552 824.199 143.098 828.344 137.494C833.438 130.607 833.678 120.697 832.413 112.549C831.377 105.869 828.336 99.8902 822.797 95.855C817.579 92.0532 811.874 91.0365 805.514 91.4376C798.635 92.72 792.926 96.0979 788.932 101.928C784.357 108.606 782.722 117.205 784.221 125.136C785.533 132.072 789.607 138.515 795.472 142.486C800.39 145.816 805.801 146.902 811.677 146.553Z"/><path transform="scale(2.38643 2.38643)" d="M444.169 69.5651C445.014 69.5113 445.859 69.4689 446.705 69.4381C458.459 69.0172 469.085 72.7864 477.723 80.8563C488.091 90.5418 492.531 104.006 492.98 117.935C493.07 120.712 492.961 124.041 490.898 126.152C489.809 127.265 488.099 127.481 486.628 127.652C479.347 128.5 471.483 127.964 464.131 127.935L422.311 127.768C423.471 131.887 424.971 135.592 427.649 138.972C431.505 143.838 436.822 147.006 443.043 147.715C449.593 148.461 458.166 147.425 463.91 143.984C466.906 142.19 469.751 139.542 472.498 137.363C473.646 137.556 474.729 138.978 475.528 139.795C477.957 142.493 484.659 147.503 485.045 151.02C485.181 152.259 484.529 153.412 483.792 154.353C478.129 161.583 465.756 166.072 456.926 167.172C443.056 168.9 428.965 166.49 417.765 157.738C408.128 150.207 402.265 139.432 400.812 127.317C399.143 113.4 402.269 98.1521 411.051 87.0022C419.56 76.1986 430.744 71.1647 444.169 69.5651ZM451.391 110.556C458.309 110.541 465.27 110.694 472.182 110.492C470.77 103.194 468.263 96.8242 461.862 92.4667C455.971 88.4556 449.716 88.1202 442.819 88.4276C436.155 89.7033 430.809 92.5156 426.94 98.2381C424.411 101.98 423.264 106.181 422.243 110.523L451.391 110.556Z"/><path transform="scale(2.38643 2.38643)" d="M317.604 25.1678C322.027 24.7613 332.528 23.9101 336.041 26.6977C336.808 28.2418 336.918 30.084 337.006 31.7828C337.465 40.6327 337.055 49.712 337.049 58.5887L337.097 114.788C343.545 108.565 371.627 74.2626 377.602 72.3962C381.3 71.2408 394.537 70.6229 397.844 72.319C398.594 73.2352 399.014 73.7072 398.97 74.9494C398.932 75.9979 398.382 76.9584 397.776 77.7836C394.875 81.7358 390.949 85.3359 387.579 88.9168C380.585 96.3491 373.58 103.822 366.312 110.987L392.946 145.964C395.562 149.384 403.498 158.058 403.558 162.004C403.572 162.873 403.244 163.647 402.622 164.237C399.989 166.737 385.129 165.509 380.967 165.424C375.988 162.399 355.34 131.832 351.097 125.011C346.156 129.926 341.542 135.397 336.901 140.604C336.964 145.934 337.879 156.374 336.768 161.057C336.403 162.593 335.71 163.955 334.315 164.791C330.663 166.981 318.906 165.509 314.764 164.437C313.591 158.444 314.098 151.562 314.121 145.459C314.176 131.228 314.827 117.004 314.864 102.787C314.89 93.0116 313.652 30.835 314.84 27.441C315.323 26.0592 316.4 25.7314 317.604 25.1678Z"/><path transform="scale(2.38643 2.38643)" d="M694.816 69.9407C700.093 69.5157 705.27 69.6511 710.398 71.0948C719.011 73.5196 726.57 79.0425 730.949 86.9051C733.03 90.6408 734.228 94.7244 734.772 98.9524C735.643 105.732 735.805 158.615 734.722 162.301C734.422 163.324 733.849 164.046 732.903 164.551C730.464 165.852 718.358 166.181 715.794 165.332C713.989 164.735 713.375 163.019 713.012 161.322C712.226 157.645 712.722 153.222 712.741 149.443L712.896 122.308C712.923 117.089 713.275 111.61 712.639 106.434C712.32 103.835 711.657 101.176 710.46 98.839C708.596 95.199 705.499 92.5572 701.586 91.3371C696.004 89.6215 689.969 90.1997 684.815 92.9437C680.565 95.8385 677.656 99.5345 676.017 104.402C673.125 112.988 674.568 142.709 674.695 153.323C674.73 156.239 675.385 161.491 673.507 163.872C672.675 164.927 671.185 165.271 669.909 165.424C667.168 165.754 655.22 166.214 653.352 164.718C652.522 164.053 652.324 162.39 652.238 161.391C651.874 157.21 652.122 152.826 652.115 148.624L652.12 124.802C652.195 109.814 651.684 94.7147 652.258 79.7446C652.309 78.4163 652.34 73.8039 653.168 72.8531C654.559 71.2555 658.007 71.1418 660.013 71.0649C662.873 70.9552 669.574 70.1822 671.578 72.1445C673.791 74.3118 672.941 80.3597 672.927 83.2247C679.368 76.5123 685.633 72.0089 694.816 69.9407Z"/><path transform="scale(2.38643 2.38643)" d="M861.569 80.4081C861.58 78.2093 861.039 73.7784 862.641 72.1413C864.981 69.7515 870.248 69.9092 873.362 69.9562C876.217 69.9993 880.289 70.0045 882.582 71.8643C885.099 77.6796 882.848 138.775 883.688 151.384C883.414 154.058 883.639 156.814 883.451 159.506C883.306 161.596 883.155 163.643 881.509 165.068C876.848 166.184 867.555 166.869 863.14 164.726C861.865 163.425 861.771 160.801 861.631 159.063C860.919 150.211 861.463 140.885 861.464 131.986L861.569 80.4081Z"/><path transform="scale(2.38643 2.38643)" d="M616.509 71.7808C620.971 71.4577 625.683 71.2344 630.152 71.4814C632.071 71.5875 634.358 71.7942 635.714 73.3067C636.731 79.6857 636.792 161.105 635.873 163.526C635.446 164.649 634.605 164.785 633.59 165.243C629.139 165.826 623.306 165.965 618.851 165.326C617.744 165.167 616.037 164.91 615.358 163.915C614.501 162.661 614.466 159.32 614.389 157.748C613.414 137.876 614.164 117.659 614.264 97.7642C614.291 92.5049 613.624 78.4873 614.549 74.0165C614.803 72.7865 615.566 72.4219 616.509 71.7808Z"/><path transform="scale(2.38643 2.38643)" d="M870.951 26.0396C874.073 26.0345 876.567 26.3811 879.242 28.0924C882.809 30.3751 885.291 34.3084 886.19 38.4121C887.085 42.5011 886.29 46.7779 883.985 50.2728C881.505 54.0882 878.035 56.0647 873.66 56.9962C870.252 57.061 867.148 56.5257 864.318 54.5289C860.976 52.1702 858.854 48.3215 858.185 44.327C857.46 39.9976 858.448 35.2433 861.028 31.6659C863.558 28.1595 866.814 26.6851 870.951 26.0396Z"/><path transform="scale(2.38643 2.38643)" d="M621.388 18.1478C624.496 17.628 627.539 17.8481 630.445 19.1287C634.26 20.8037 637.248 23.9311 638.746 27.8168C640.205 31.6794 640.081 35.9612 638.401 39.7328C636.765 43.3373 633.49 46.2375 629.796 47.6162C626.54 48.4629 623.793 48.6429 620.575 47.4411C616.983 46.0997 614.148 43.2591 612.582 39.785C610.794 35.7243 610.686 31.1218 612.28 26.9813C614.03 22.4341 617.091 20.0468 621.388 18.1478Z"/><path fill="#0E47DE" transform="scale(2.38643 2.38643)" d="M750.537 142.459C753.047 142.252 755.35 142.408 757.661 143.504C760.469 144.828 762.623 147.23 763.632 150.164C764.759 153.397 764.553 157.156 763.046 160.234C761.444 163.504 758.8 165.314 755.433 166.461C752.753 166.577 750.498 166.572 748.104 165.197C745.099 163.486 742.908 160.639 742.023 157.298C741.181 154.183 741.409 150.695 743.044 147.87C744.653 145.088 747.478 143.253 750.537 142.459Z"/></svg>